<svg width="331" height="46" viewBox="0 0 331 46" fill="none" xmlns="http://www.w3.org/2000/svg">
<rect width="331" height="46" rx="23" fill="#FF8E26"/>
<path d="M30.5 13C25.2533 13 21 16.6342 21 21.117C21 24.0152 22.7782 26.5583 25.4529 27.9943C25.3074 28.5382 24.5178 31.493 24.4864 31.7251C24.4864 31.7251 24.4675 31.8996 24.5717 31.9661C24.6759 32.0325 24.7985 31.9809 24.7985 31.9809C25.0974 31.9356 28.2645 29.5249 28.8127 29.1063C29.3602 29.1903 29.9242 29.234 30.5 29.234C35.7468 29.234 40 25.5999 40 21.1171C40 16.6342 35.7468 13 30.5 13Z" fill="black"/>
<path d="M118.076 17.752H119.21C119.21 21.406 117.978 24.766 113.442 27.02L112.812 26.124C116.816 24.15 118.076 21.322 118.076 17.878V17.752ZM113.498 17.752H118.762V18.69H113.498V17.752ZM117.894 20.888V21.784L113.05 22.26L112.868 21.224L117.894 20.888ZM121.254 16.422H122.43V29.092H121.254V16.422ZM122.108 21.56H124.446V22.526H122.108V21.56ZM130.255 17.752H131.389C131.389 21.406 130.157 24.766 125.621 27.02L124.991 26.124C128.995 24.15 130.255 21.322 130.255 17.878V17.752ZM125.677 17.752H130.941V18.69H125.677V17.752ZM130.073 20.888V21.784L125.229 22.26L125.047 21.224L130.073 20.888ZM133.433 16.422H134.609V29.092H133.433V16.422ZM134.287 21.56H136.625V22.526H134.287V21.56ZM142.182 23.59H143.344V26.74H142.182V23.59ZM142.77 17.262C145.444 17.262 147.362 18.564 147.362 20.58C147.362 22.596 145.444 23.898 142.77 23.898C140.096 23.898 138.164 22.596 138.164 20.58C138.164 18.564 140.096 17.262 142.77 17.262ZM142.77 18.186C140.754 18.186 139.284 19.138 139.284 20.58C139.284 22.022 140.754 22.974 142.77 22.974C144.772 22.974 146.242 22.022 146.242 20.58C146.242 19.138 144.772 18.186 142.77 18.186ZM137.058 26.516H148.524V27.482H137.058V26.516ZM149.223 23.254H160.661V24.206H149.223V23.254ZM154.361 21.546H155.509V23.576H154.361V21.546ZM150.497 25.312H159.191V29.092H158.029V26.264H150.497V25.312ZM150.735 21.028H159.317V21.938H150.735V21.028ZM150.735 16.772H159.261V17.682H151.883V21.448H150.735V16.772ZM151.547 18.872H158.925V19.754H151.547V18.872ZM167.128 17.234C169.76 17.234 171.72 18.634 171.72 20.734C171.72 22.848 169.76 24.234 167.128 24.234C164.496 24.234 162.522 22.848 162.522 20.734C162.522 18.634 164.496 17.234 167.128 17.234ZM167.128 18.186C165.126 18.186 163.642 19.208 163.642 20.734C163.642 22.246 165.126 23.282 167.128 23.282C169.13 23.282 170.614 22.246 170.614 20.734C170.614 19.208 169.13 18.186 167.128 18.186ZM161.416 26.446H172.882V27.426H161.416V26.446ZM173.595 26.572H185.061V27.538H173.595V26.572ZM178.719 23.856H179.881V26.978H178.719V23.856ZM174.981 17.374H183.647V21.21H176.171V23.744H175.023V20.272H182.499V18.312H174.981V17.374ZM175.023 23.254H183.941V24.206H175.023V23.254ZM192.042 17.528H192.994V19.796C192.994 22.708 191.426 25.41 189.354 26.46L188.64 25.508C190.516 24.612 192.042 22.19 192.042 19.796V17.528ZM192.238 17.528H193.19V19.796C193.19 22.106 194.702 24.43 196.578 25.298L195.878 26.222C193.82 25.214 192.238 22.61 192.238 19.796V17.528ZM197.894 16.422H199.056V29.106H197.894V16.422ZM203.997 17.738H204.949V18.76C204.949 21.084 203.549 23.016 201.435 23.772L200.819 22.862C202.737 22.19 203.997 20.566 203.997 18.76V17.738ZM204.207 17.738H205.159V18.746C205.159 20.426 206.377 21.98 208.239 22.61L207.637 23.52C205.551 22.792 204.207 20.93 204.207 18.746V17.738ZM201.183 17.318H207.945V18.27H201.183V17.318ZM209.541 16.436H210.703V24.052H209.541V16.436ZM210.381 19.768H212.579V20.734H210.381V19.768ZM202.485 24.724H210.703V29.092H209.541V25.69H202.485V24.724ZM221.636 16.436H222.798V29.092H221.636V16.436ZM222.518 21.63H224.87V22.61H222.518V21.63ZM212.998 18.452H220.46V19.404H212.998V18.452ZM216.778 20.454C218.57 20.454 219.858 21.658 219.858 23.366C219.858 25.074 218.57 26.278 216.778 26.278C215 26.278 213.698 25.074 213.698 23.366C213.698 21.658 215 20.454 216.778 20.454ZM216.778 21.42C215.63 21.42 214.804 22.218 214.804 23.366C214.804 24.5 215.63 25.312 216.778 25.312C217.926 25.312 218.752 24.5 218.752 23.366C218.752 22.218 217.926 21.42 216.778 21.42ZM216.176 16.59H217.338V18.886H216.176V16.59ZM234.459 16.436H235.621V29.092H234.459V16.436ZM230.749 17.794H231.897C231.897 21.462 230.245 24.668 226.017 26.74L225.401 25.802C229.055 24.038 230.749 21.35 230.749 17.99V17.794ZM225.975 17.794H231.253V18.746H225.975V17.794Z" fill="black"/>
</svg>
