<svg width="15" height="15" viewBox="0 0 15 15" fill="none" xmlns="http://www.w3.org/2000/svg">
<path d="M4.375 1.25C2.07083 1.25 0.625 3.25922 0.625 5.3125C0.625 7.40073 1.67134 9.1871 2.98219 10.5811C4.29506 11.9772 5.92311 13.0353 7.22049 13.684C7.39645 13.772 7.60355 13.772 7.77951 13.684C9.07689 13.0353 10.7049 11.9772 12.0178 10.5811C13.3287 9.1871 14.375 7.40073 14.375 5.3125C14.375 3.26258 12.9555 1.25 10.625 1.25C9.54687 1.25 8.78321 1.54987 8.19913 2.0061C7.92404 2.22098 7.69438 2.46882 7.49835 2.71024C7.30014 2.4683 7.06816 2.22041 6.79057 2.00494C6.20548 1.55078 5.44302 1.25 4.375 1.25Z" fill="white"/>
</svg>
